# Blender 4.1.1
# www.blender.org
mtllib petals.mtl
o flower_1_cherry_tree_leaves_0
v 119.688477 -0.687052 36.554298
v 119.144058 4.861555 -0.536745
v 83.507385 -2.116299 -0.469080
v 83.598503 4.861555 36.025009
v 48.052944 4.861555 -0.536745
v 47.507153 -0.686789 36.555630
v 83.598495 4.861555 -29.786150
v 47.509640 -0.673103 -30.446409
v 119.686020 -0.673433 -30.444773
vn -0.0198 0.9996 -0.0193
vn -0.0198 0.9998 0.0001
vn -0.0000 1.0000 -0.0000
vn -0.0000 0.9998 -0.0193
vn 0.0199 0.9998 0.0001
vn 0.0198 0.9996 -0.0193
vn -0.0000 0.9997 0.0242
vn 0.0199 0.9995 0.0242
vn -0.0199 0.9995 0.0241
vt 0.542954 0.540302
vt 0.542954 0.270151
vt 0.305984 0.270151
vt 0.305984 0.540302
vt 0.069013 0.270151
vt 0.069013 0.540302
vt 0.305984 0.054030
vt 0.069013 0.054030
vt 0.542954 0.054030
s 1
usemtl cherry_tree_leaves
f 1/1/1 2/2/2 3/3/3
f 1/1/1 3/3/3 4/4/4
f 4/4/4 3/3/3 5/5/5
f 4/4/4 5/5/5 6/6/6
f 5/5/5 3/3/3 7/7/7
f 5/5/5 7/7/7 8/8/8
f 9/9/9 7/7/7 3/3/3
f 9/9/9 3/3/3 2/2/2
o flower_2_cherry_tree_leaves1_0
v -84.363136 4.861555 -0.271992
v -62.174847 -4.155746 -0.271992
v -62.174847 4.861555 -27.318209
v -85.044022 1.510766 -27.876787
v -62.174847 4.861555 26.774221
v -85.044022 1.510766 27.332804
v -39.305672 1.510766 27.332804
v -39.986549 4.861555 -0.271992
v -39.305672 1.510766 -27.876787
vn 0.1235 0.9923 -0.0000
vn -0.0000 1.0000 -0.0000
vn -0.0000 0.9948 0.1016
vn 0.1229 0.9873 0.1008
vn -0.0000 0.9948 -0.1016
vn 0.1229 0.9873 -0.1008
vn -0.1229 0.9873 -0.1009
vn -0.1236 0.9923 -0.0000
vn -0.1229 0.9873 0.1008
vt 0.654763 0.270462
vt 0.802685 0.270462
vt 0.802685 0.090154
vt 0.654763 0.090154
vt 0.802685 0.450770
vt 0.654763 0.450770
vt 0.950607 0.450770
vt 0.950607 0.270462
vt 0.950607 0.090154
s 1
usemtl cherry_tree_leaves1
f 10/10/10 11/11/11 12/12/12
f 10/10/10 12/12/12 13/13/13
f 14/14/14 11/11/11 10/10/10
f 14/14/14 10/10/10 15/15/15
f 16/16/16 17/17/17 11/11/11
f 16/16/16 11/11/11 14/14/14
f 12/12/12 11/11/11 17/17/17
f 12/12/12 17/17/17 18/18/18
o bud_cherry_tree_leaves2_0
v 10.603371 7.582453 38.925484
v -10.645588 7.582453 63.117661
v 10.603374 4.861555 63.117661
v -10.645588 4.861555 38.925484
vn -0.0104 0.9999 -0.0092
vn 0.0104 0.9999 0.0092
vn 0.1262 0.9858 0.1109
vn -0.1262 0.9858 -0.1109
vt 0.914699 0.717506
vt 0.773039 0.878787
vt 0.914699 0.878787
vt 0.773039 0.717506
s 1
usemtl cherry_tree_leaves2
f 19/19/19 20/20/20 21/21/21
f 19/19/19 22/22/22 20/20/20
o petal_1_cherry_tree_leaves3_0
v 20.103870 4.861555 -34.025257
v 20.103870 4.861555 -72.589798
v 0.845070 8.597021 -72.589798
v 0.845070 3.541752 -34.025257
v -18.413733 4.861555 -72.589798
v -18.413733 4.861555 -34.025257
vn 0.0624 0.9959 0.0653
vn 0.0625 0.9959 0.0653
vn -0.0000 0.9979 0.0654
vn -0.0625 0.9959 0.0653
vn -0.0624 0.9959 0.0652
vt 0.692168 0.914894
vt 0.692168 0.657797
vt 0.563776 0.657797
vt 0.563776 0.914894
vt 0.435384 0.657797
vt 0.435384 0.914894
s 1
usemtl cherry_tree_leaves3
f 23/23/23 24/24/24 25/25/25
f 23/23/23 25/25/25 26/26/25
f 26/26/25 25/25/25 27/27/26
f 26/26/25 27/27/26 28/28/27
o petal_2_cherry_tree_leaves4_0
v 0.119709 6.576725 19.169727
v 0.119709 3.334813 -19.392212
v -14.456844 4.861555 -19.392212
v -14.456844 4.861555 19.172325
v 14.696268 4.861555 19.172325
v 14.696268 4.861555 -19.392214
vn -0.0000 0.9991 -0.0420
vn -0.0065 0.9991 -0.0420
vn 0.0065 0.9991 -0.0420
vn 0.0064 0.9991 -0.0420
vt 0.228255 0.914894
vt 0.228255 0.657797
vt 0.131078 0.657797
vt 0.131078 0.914894
vt 0.325432 0.914894
vt 0.325432 0.657797
s 1
usemtl cherry_tree_leaves4
f 29/29/28 30/30/28 31/31/29
f 29/29/28 31/31/29 32/32/29
f 33/33/30 34/34/31 30/30/28
f 33/33/30 30/30/28 29/29/28
