# Blender 4.1.1
# www.blender.org
mtllib mesa.mtl
o Cube_329__lambert1_0
v 3.000000 1.250000 0.062599
v -1.000000 1.250000 0.062599
v -1.000000 1.062500 0.062599
v 3.000000 1.062500 0.062599
v -1.062599 1.250000 0.000000
v -1.062599 1.250000 -1.000000
v -1.062599 1.062500 -1.000000
v -1.062599 1.062500 0.000000
v -1.000000 1.250000 -1.062599
v 3.000000 1.250000 -1.062599
v 3.000000 1.062500 -1.062599
v -1.000000 1.062500 -1.062599
v 3.062599 1.250000 -1.000000
v 3.062599 1.250000 0.000000
v 3.062599 1.062500 0.000000
v 3.062599 1.062500 -1.000000
v 3.000000 1.250000 -1.000000
v -1.000000 1.250000 -1.000000
v -1.000000 1.250000 0.000000
v 3.000000 1.250000 0.000000
v 3.000000 1.062500 0.062599
v -1.000000 1.062500 0.062599
v -1.000000 1.062500 0.000000
v 3.000000 1.062500 0.000000
v 3.062599 1.250000 0.062599
v 3.062599 1.062500 0.062599
v -1.062599 1.062500 0.062599
v -1.062599 1.250000 0.062599
v -1.000000 1.250000 0.062599
v 3.000000 1.250000 0.062599
v -1.000000 1.062500 -1.062599
v 3.000000 1.062500 -1.062599
v 3.000000 1.062500 -1.000000
v -1.000000 1.062500 -1.000000
v -1.062599 1.250000 -1.062599
v -1.062599 1.062500 -1.062599
v 3.062599 1.062500 -1.062599
v 3.062599 1.250000 -1.062599
v 3.000000 1.250000 -1.062599
v -1.000000 1.250000 -1.062599
v -1.062599 1.250000 -1.000000
v -1.062599 1.250000 0.000000
v -1.062599 1.250000 -1.062599
v -1.062599 1.062500 -1.000000
v -1.062599 1.062500 -1.062599
v -1.062599 1.062500 -1.062599
v -1.062599 1.250000 -1.062599
v -1.062599 1.062500 0.000000
v -1.062599 1.062500 0.062599
v -1.062599 1.250000 0.062599
v -1.062599 1.250000 0.062599
v -1.062599 1.062500 0.062599
v 3.062599 1.062500 -1.000000
v 3.062599 1.062500 0.000000
v 3.062599 1.062500 -1.062599
v 3.062599 1.250000 0.062599
v 3.062599 1.250000 0.000000
v 3.062599 1.250000 -1.000000
v 3.062599 1.062500 0.062599
v 3.062599 1.062500 0.062599
v 3.062599 1.250000 0.062599
v 3.062599 1.250000 -1.062599
v 3.062599 1.250000 -1.062599
v 3.062599 1.062500 -1.062599
v 3.000000 0.187401 -1.000000
v -1.000000 0.187401 -1.000000
v -1.000000 1.062500 -1.000000
v 3.000000 1.062500 -1.000000
v 3.000000 0.187401 0.000000
v 3.000000 0.187401 -1.000000
v 3.000000 1.062500 -1.000000
v 3.000000 1.062500 0.000000
v -1.000000 0.187401 -1.000000
v -1.000000 0.187401 0.000000
v -1.000000 1.062500 0.000000
v -1.000000 1.062500 -1.000000
v -1.000000 0.187401 0.000000
v 3.000000 0.187401 0.000000
v 3.000000 1.062500 0.000000
v -1.000000 1.062500 0.000000
v 3.062500 0.124901 -1.062500
v -1.062500 0.124901 -1.062500
v -1.000000 0.187401 -1.000000
v 3.000000 0.187401 -1.000000
v 3.062500 0.124901 0.062500
v 3.062500 0.124901 -1.062500
v 3.000000 0.187401 -1.000000
v 3.000000 0.187401 0.000000
v -1.062500 0.124901 -1.062500
v -1.062500 0.124901 0.062500
v -1.000000 0.187401 0.000000
v -1.000000 0.187401 -1.000000
v -1.062500 0.124901 0.062500
v 3.062500 0.124901 0.062500
v 3.000000 0.187401 0.000000
v -1.000000 0.187401 0.000000
v 3.062500 -0.000099 -1.062500
v -1.062500 -0.000099 -1.062500
v -1.062500 0.124901 -1.062500
v 3.062500 0.124901 -1.062500
v 3.062500 -0.000099 0.062500
v 3.062500 -0.000099 -1.062500
v 3.062500 0.124901 -1.062500
v 3.062500 0.124901 0.062500
v -1.062500 -0.000099 -1.062500
v -1.062500 -0.000099 0.062500
v -1.062500 0.124901 0.062500
v -1.062500 0.124901 -1.062500
v -1.062500 -0.000099 0.062500
v 3.062500 -0.000099 0.062500
v 3.062500 0.124901 0.062500
v -1.062500 0.124901 0.062500
vn -0.0000 -0.0000 1.0000
vn -1.0000 -0.0000 -0.0000
vn -0.0000 -0.0000 -1.0000
vn 1.0000 -0.0000 -0.0000
vn -0.0000 1.0000 -0.0000
vn -0.0000 -1.0000 -0.0000
vn -0.0000 0.7071 -0.7071
vn 0.7071 0.7071 -0.0000
vn -0.7071 0.7071 -0.0000
vn -0.0000 0.7071 0.7071
vt 0.733544 0.348069
vt 0.029185 0.348069
vt 0.029185 0.381086
vt 0.733544 0.381086
vt 0.956837 0.500825
vt 0.780747 0.500825
vt 0.780747 0.533842
vt 0.956837 0.533842
vt 0.734510 0.396385
vt 0.030151 0.396385
vt 0.030151 0.429402
vt 0.734510 0.429402
vt 0.959574 0.451463
vt 0.783484 0.451463
vt 0.783484 0.484480
vt 0.959574 0.484480
vt 0.030056 0.634616
vt 0.734415 0.634616
vt 0.734415 0.458526
vt 0.030056 0.458526
vt 0.736552 0.017141
vt 0.032193 0.017141
vt 0.032193 0.028164
vt 0.736552 0.028164
vt 0.772461 0.451463
vt 0.772461 0.484480
vt 0.967860 0.533842
vt 0.967860 0.500825
vt 0.734415 0.447503
vt 0.030056 0.447503
vt 0.032193 0.215277
vt 0.736552 0.215277
vt 0.736552 0.204254
vt 0.032193 0.204254
vt 0.769724 0.500825
vt 0.769724 0.533842
vt 0.970597 0.484480
vt 0.970597 0.451463
vt 0.030056 0.645639
vt 0.734415 0.645639
vt 0.745438 0.634616
vt 0.745438 0.458526
vt 0.745438 0.645639
vt 0.021170 0.204254
vt 0.021170 0.215277
vt 0.745533 0.429402
vt 0.745533 0.396385
vt 0.021170 0.028164
vt 0.021170 0.017141
vt 0.745438 0.447503
vt 0.018162 0.348069
vt 0.018162 0.381086
vt 0.747575 0.204254
vt 0.747575 0.028164
vt 0.747575 0.215277
vt 0.019033 0.447503
vt 0.019033 0.458526
vt 0.019033 0.634616
vt 0.747575 0.017141
vt 0.744567 0.381086
vt 0.744567 0.348069
vt 0.019033 0.645639
vt 0.019128 0.396385
vt 0.019128 0.429402
vt 0.019161 0.985937
vt 0.723520 0.985937
vt 0.723520 0.831841
vt 0.019161 0.831841
vt 0.748197 0.810695
vt 0.924287 0.810695
vt 0.924287 0.656599
vt 0.748197 0.656599
vt 0.741261 0.982103
vt 0.917350 0.982103
vt 0.917350 0.828007
vt 0.741261 0.828007
vt 0.020855 0.815646
vt 0.725214 0.815646
vt 0.725214 0.661550
vt 0.020855 0.661550
vt 0.016085 0.253172
vt 0.742457 0.253172
vt 0.731451 0.237608
vt 0.027091 0.237608
vt 0.768042 0.562689
vt 0.966143 0.562689
vt 0.955138 0.547125
vt 0.779048 0.547125
vt 0.763072 0.616406
vt 0.961173 0.616406
vt 0.950167 0.600842
vt 0.774077 0.600842
vt 0.015775 0.309962
vt 0.742146 0.309962
vt 0.731140 0.294398
vt 0.026781 0.294398
vt 0.016085 0.275183
vt 0.742457 0.275184
vt 0.768042 0.584700
vt 0.966143 0.584701
vt 0.763072 0.638417
vt 0.961173 0.638418
vt 0.015775 0.331974
vt 0.742146 0.331974
s 0
usemtl lambert1
f 1/1/1 2/2/1 3/3/1
f 1/1/1 3/3/1 4/4/1
f 5/5/2 6/6/2 7/7/2
f 5/5/2 7/7/2 8/8/2
f 9/9/3 10/10/3 11/11/3
f 9/9/3 11/11/3 12/12/3
f 13/13/4 14/14/4 15/15/4
f 13/13/4 15/15/4 16/16/4
f 17/17/5 18/18/5 19/19/5
f 17/17/5 19/19/5 20/20/5
f 21/21/6 22/22/6 23/23/6
f 21/21/6 23/23/6 24/24/6
f 25/25/4 26/26/4 15/15/4
f 25/25/4 15/15/4 14/14/4
f 27/27/2 28/28/2 5/5/2
f 27/27/2 5/5/2 8/8/2
f 29/29/5 30/30/5 20/20/5
f 29/29/5 20/20/5 19/19/5
f 31/31/6 32/32/6 33/33/6
f 31/31/6 33/33/6 34/34/6
f 35/35/2 36/36/2 7/7/2
f 35/35/2 7/7/2 6/6/2
f 37/37/4 38/38/4 13/13/4
f 37/37/4 13/13/4 16/16/4
f 39/39/5 40/40/5 18/18/5
f 39/39/5 18/18/5 17/17/5
f 41/41/5 42/42/5 19/19/5
f 41/41/5 19/19/5 18/18/5
f 43/43/5 41/41/5 18/18/5
f 43/43/5 18/18/5 40/40/5
f 44/44/6 45/45/6 31/31/6
f 44/44/6 31/31/6 34/34/6
f 46/46/3 47/47/3 9/9/3
f 46/46/3 9/9/3 12/12/3
f 48/48/6 44/44/6 34/34/6
f 48/48/6 34/34/6 23/23/6
f 49/49/6 48/48/6 23/23/6
f 49/49/6 23/23/6 22/22/6
f 42/42/5 50/50/5 29/29/5
f 42/42/5 29/29/5 19/19/5
f 51/51/1 52/52/1 3/3/1
f 51/51/1 3/3/1 2/2/1
f 53/53/6 54/54/6 24/24/6
f 53/53/6 24/24/6 33/33/6
f 55/55/6 53/53/6 33/33/6
f 55/55/6 33/33/6 32/32/6
f 56/56/5 57/57/5 20/20/5
f 56/56/5 20/20/5 30/30/5
f 57/57/5 58/58/5 17/17/5
f 57/57/5 17/17/5 20/20/5
f 54/54/6 59/59/6 21/21/6
f 54/54/6 21/21/6 24/24/6
f 60/60/1 61/61/1 1/1/1
f 60/60/1 1/1/1 4/4/1
f 58/58/5 62/62/5 39/39/5
f 58/58/5 39/39/5 17/17/5
f 63/63/3 64/64/3 11/11/3
f 63/63/3 11/11/3 10/10/3
f 65/65/3 66/66/3 67/67/3
f 65/65/3 67/67/3 68/68/3
f 69/69/4 70/70/4 71/71/4
f 69/69/4 71/71/4 72/72/4
f 73/73/2 74/74/2 75/75/2
f 73/73/2 75/75/2 76/76/2
f 77/77/1 78/78/1 79/79/1
f 77/77/1 79/79/1 80/80/1
f 81/81/7 82/82/7 83/83/7
f 81/81/7 83/83/7 84/84/7
f 85/85/8 86/86/8 87/87/8
f 85/85/8 87/87/8 88/88/8
f 89/89/9 90/90/9 91/91/9
f 89/89/9 91/91/9 92/92/9
f 93/93/10 94/94/10 95/95/10
f 93/93/10 95/95/10 96/96/10
f 97/97/3 98/98/3 99/82/3
f 97/97/3 99/82/3 100/81/3
f 101/99/4 102/100/4 103/86/4
f 101/99/4 103/86/4 104/85/4
f 105/101/2 106/102/2 107/90/2
f 105/101/2 107/90/2 108/89/2
f 109/103/1 110/104/1 111/94/1
f 109/103/1 111/94/1 112/93/1
